<svg xmlns="http://www.w3.org/2000/svg" xmlns:xlink="http://www.w3.org/1999/xlink" xmlns:lucid="lucid" width="641" height="166"><g transform="translate(962.5125312214186 -2086.8398207103646)" lucid:page-tab-id="v2B8PCmnwCgk"><path d="M-961.5 2093.84a6 6 0 0 1 6-6h608a6 6 0 0 1 6 6v152a6 6 0 0 1-6 6h-608a6 6 0 0 1-6-6z" stroke="#000" stroke-width="2" fill-opacity="0"/><path d="M-821.5 2128.84a6 6 0 0 1 6-6h488a6 6 0 0 1 6 6v88a6 6 0 0 1-6 6h-488a6 6 0 0 1-6-6z" fill="none"/><use xlink:href="#a" transform="matrix(1,0,0,1,-821.5125312214186,2122.8398207103646) translate(34 81.6)"/><path d="M-761.5 2197.84a6 6 0 0 1 6-6h368a6 6 0 0 1 6 6v48a6 6 0 0 1-6 6h-368a6 6 0 0 1-6-6z" fill="none"/><use xlink:href="#b" transform="matrix(1,0,0,1,-761.5125312214186,2191.8398207103646) translate(3.3333333333333144 38)"/><use xlink:href="#c" transform="matrix(1,0,0,1,-761.5125312214186,2191.8398207103646) translate(149.99999999999997 38)"/><use xlink:href="#d" transform="matrix(1,0,0,1,-761.5125312214186,2191.8398207103646) translate(203.33333333333331 38)"/><path d="M-913.5 2161.84c0 7.73-6.28 14-14 14-7.75 0-14-6.27-14-14s6.25-14 14-14c7.72 0 14 6.27 14 14z" stroke="#000" stroke-width="2" fill="#00c2a8"/><path d="M-854.5 2108.84a6 6 0 0 1 6-6h108a6 6 0 0 1 6 6v128a6 6 0 0 1-6 6h-108a6 6 0 0 1-6-6z" fill="none"/><use xlink:href="#e" transform="matrix(1,0,0,1,-854.5125312214186,2102.8398207103646) translate(23.33333333333333 124.66666666666667)"/><path d="M-931.5 2115.84a6 6 0 0 1 6-6h128a6 6 0 0 1 6 6v108a6 6 0 0 1-6 6h-128a6 6 0 0 1-6-6z" fill="none"/><g><use xlink:href="#f" transform="matrix(1,0,0,1,-931.5125312214186,2109.8398207103646) translate(15.200000000000003 100)"/></g><defs><path d="M85 0v-82h195v-386H105v-82h265v468h185V0H85zm301-712c0 40-29 64-71 63-42 1-71-23-71-63 0-41 29-66 71-65 42-1 71 24 71 65" id="g"/><path d="M418-105C408-35 350 11 268 10 155 11 87-76 87-194v-161c-2-119 66-206 181-205 82-2 141 46 152 115-2-94-2-189-2-285h90V0h-90v-105zm-241-90c-1 85 41 126 121 127 77 0 120-53 120-132v-150c1-79-43-132-120-132-81 1-121 41-121 127v160" id="h"/><path d="M512-140C501-46 409 12 300 10 170 11 81-77 84-210v-130c-3-133 86-221 216-220 133 3 213 77 216 210v98H172v52c-1 79 51 133 128 132 61 1 112-25 122-72h90zM300-486c-92 0-136 63-128 164h256c8-101-36-164-128-164" id="i"/><path d="M505-750c-81-6-144 9-140 86 4 88 42 200-13 258-22 24-58 38-108 43 89 6 144 55 136 143L365-56c-8 77 59 92 140 86v80C370 121 264 69 275-56l15-164c5-78-18-99-100-100H75v-80h115c82-1 103-22 100-100-5-103-45-228 30-286 45-35 106-47 185-44v80" id="j"/><path fill="#a67c6b" d="M418-105C408-35 350 11 268 10 155 11 87-76 87-194v-161c-2-119 66-206 181-205 82-2 141 46 152 115-2-94-2-189-2-285h90V0h-90v-105zm-241-90c-1 85 41 126 121 127 77 0 120-53 120-132v-150c1-79-43-132-120-132-81 1-121 41-121 127v160" id="k"/><path fill="#a67c6b" d="M516-212C518-77 432 9 300 8 168 9 82-77 84-212v-126c-2-137 82-221 216-220 134-1 218 83 216 220v126zm-342 10c-1 82 47 130 126 130 80 0 126-47 126-130v-146c1-83-46-130-126-130-79 0-126 48-126 130v146" id="l"/><path fill="#a67c6b" d="M121 0L31-550h78c22 160 49 315 66 480 19-168 54-319 80-480h90c26 161 60 314 81 480 19-164 46-320 69-480h74L475 0h-99c-25-163-57-319-76-488-19 169-54 325-80 488h-99" id="m"/><path fill="#a67c6b" d="M303-484c-77 0-121 53-121 134V0H92v-550h90c1 35-1 72 1 105 9-73 63-116 146-115 111-1 181 77 181 190V0h-90v-354c1-79-42-130-117-130" id="n"/><path d="M95 110V30c78 5 148-8 140-86-9-85-53-190-5-260 19-26 46-43 80-49-64-10-112-57-100-135l25-164c12-77-60-92-140-86v-80c133-6 250 32 230 166l-25 164c-10 79 19 99 100 100h125v80c-102 7-245-34-225 100 12 82 48 181 10 254-35 60-115 82-215 76" id="o"/><g id="a"><use transform="matrix(0.08,0,0,0.08,0,0)" xlink:href="#g"/><use transform="matrix(0.08,0,0,0.08,48,0)" xlink:href="#h"/><use transform="matrix(0.08,0,0,0.08,96,0)" xlink:href="#i"/><use transform="matrix(0.08,0,0,0.08,144,0)" xlink:href="#j"/><use transform="matrix(0.08,0,0,0.08,192,0)" xlink:href="#k"/><use transform="matrix(0.08,0,0,0.08,240,0)" xlink:href="#l"/><use transform="matrix(0.08,0,0,0.08,288,0)" xlink:href="#m"/><use transform="matrix(0.08,0,0,0.08,336,0)" xlink:href="#n"/><use transform="matrix(0.08,0,0,0.08,384,0)" xlink:href="#o"/></g><path fill="#ba23f6" d="M471 0c-97-6-219 20-263-40-23-26-31-61-24-105l51-323H77l13-82h158l25-155h90l-25 155h225l-13 82H325l-51 323c-6 37 15 64 50 63h160" id="p"/><path fill="#ba23f6" d="M490-140C464-46 375 11 254 10 126 11 51-74 73-210c19-114 33-229 103-292 87-78 300-76 344 28 48 113-24 224-150 224H168c-10 50-18 112 12 146 54 62 202 36 220-36h90zM179-322h201c67 5 82-99 40-136-45-40-145-33-188 8-31 30-48 73-53 128" id="q"/><path fill="#ba23f6" d="M11 0l235-286-136-264h104c32 72 67 140 96 215 48-77 107-143 160-215h107L357-279 501 0H397c-34-77-74-148-104-229C240-147 176-77 118 0H11" id="r"/><path fill="#ba23f6" d="M142-290l13-80h320l-13 80H142" id="s"/><path fill="#ba23f6" d="M0 180l13-82c88 4 155 1 168-78l61-373H71l13-82h171c19-97 21-198 87-252 60-49 154-42 258-43l-13 82H461c-111-7-96 127-116 213h214l-13 82H332L271 20c-14 95-89 161-198 160H0" id="t"/><path fill="#ba23f6" d="M36 0l13-82h195l61-386H135l13-82h260L334-82h185L506 0H36zm419-712c3 52-87 85-130 46-50-68 53-150 118-94 11 12 15 28 12 48" id="u"/><path fill="#ba23f6" d="M230-445c20-68 79-115 166-115 137 0 173 111 140 245h-90c22-89 10-172-91-167-86 4-129 54-142 132L158 0H68l87-550h90l-17 105h2" id="v"/><path fill="#ba23f6" d="M438-415c8-85-147-81-203-46-19 14-31 33-35 57-6 39 8 61 43 66l138 20c92 13 130 68 114 164C477-32 385 8 233 8 122 8 50-41 65-151h90c-11 73 56 81 134 81 64 0 110-29 118-84 8-47-10-71-52-80-81-16-191-6-228-68-40-71-4-178 51-216 68-47 247-60 313-2 29 26 42 61 38 105h-91" id="w"/><g id="b"><use transform="matrix(0.022222222222222223,0,0,0.022222222222222223,0,0)" xlink:href="#p"/><use transform="matrix(0.022222222222222223,0,0,0.022222222222222223,13.333333333333334,0)" xlink:href="#q"/><use transform="matrix(0.022222222222222223,0,0,0.022222222222222223,26.666666666666668,0)" xlink:href="#r"/><use transform="matrix(0.022222222222222223,0,0,0.022222222222222223,40,0)" xlink:href="#p"/><use transform="matrix(0.022222222222222223,0,0,0.022222222222222223,53.333333333333336,0)" xlink:href="#s"/><use transform="matrix(0.022222222222222223,0,0,0.022222222222222223,66.66666666666667,0)" xlink:href="#t"/><use transform="matrix(0.022222222222222223,0,0,0.022222222222222223,80,0)" xlink:href="#u"/><use transform="matrix(0.022222222222222223,0,0,0.022222222222222223,93.33333333333334,0)" xlink:href="#v"/><use transform="matrix(0.022222222222222223,0,0,0.022222222222222223,106.66666666666666,0)" xlink:href="#w"/><use transform="matrix(0.022222222222222223,0,0,0.022222222222222223,119.99999999999999,0)" xlink:href="#p"/></g><path fill="#ba23f6" d="M77 0l-3-550h76c-4 160 0 326-10 480 46-166 105-319 156-480h90c1 159 12 322 5 480 45-163 97-320 145-480h76L431 0h-99c1-163-7-330 1-488C287-319 228-163 176 0H77" id="x"/><path fill="#ba23f6" d="M206-445c21-70 80-116 171-115 113-1 169 84 148 205-20 115-30 244-97 311-76 75-283 77-273-61L138 0H48l116-730h90c-15 96-31 191-48 285zm-19 342c33 49 134 43 176 5 58-46 54-170 72-257s-22-126-101-127c-81 1-133 57-141 132-9 77-49 184-6 247" id="y"/><g id="c"><use transform="matrix(0.022222222222222223,0,0,0.022222222222222223,0,0)" xlink:href="#x"/><use transform="matrix(0.022222222222222223,0,0,0.022222222222222223,13.333333333333334,0)" xlink:href="#q"/><use transform="matrix(0.022222222222222223,0,0,0.022222222222222223,26.666666666666668,0)" xlink:href="#y"/></g><path fill="#ba23f6" d="M428-44c-77 76-279 77-272-61h-3c-13 96-28 191-44 285H19l116-730h90c-5 35-13 72-16 105 19-71 79-115 168-115 110-1 169 86 148 204-20 115-29 245-97 312zm-241-59c33 49 134 43 176 5 58-46 54-170 72-257s-22-126-101-127c-80 1-134 57-141 132-8 78-49 184-6 247" id="z"/><path fill="#ba23f6" d="M210-445c18-70 77-115 164-115 109-1 169 74 151 190L466 0h-90l56-354c14-81-22-130-96-130-82 1-131 57-143 134L138 0H48l87-550h90l-17 105h2" id="A"/><path fill="#ba23f6" d="M381-111C359-19 218 49 122-16 32-74 76-244 95-355c18-110 81-198 201-205 71-1 121 45 118 115h3l15-105h90l-67 423c-7 45 37 49 83 45L525 0h-50c-62 2-104-48-94-111zm-205 7c31 51 116 42 156 0 51-53 52-159 68-246 14-75-18-132-87-132-136 3-132 162-152 282-6 41-1 72 15 96" id="B"/><path fill="#ba23f6" d="M420-45c-75 63-245 75-311-1-63-73-22-206-10-304 16-127 105-210 246-210 125-2 201 80 179 209-20 117-28 242-104 306zm-238-58c34 47 139 38 181 0 54-50 54-160 70-247 16-84-22-130-101-130-84 1-135 51-143 130-8 76-50 186-7 247" id="C"/><g id="d"><use transform="matrix(0.022222222222222223,0,0,0.022222222222222223,0,0)" xlink:href="#z"/><use transform="matrix(0.022222222222222223,0,0,0.022222222222222223,13.333333333333334,0)" xlink:href="#v"/><use transform="matrix(0.022222222222222223,0,0,0.022222222222222223,26.666666666666668,0)" xlink:href="#q"/><use transform="matrix(0.022222222222222223,0,0,0.022222222222222223,40,0)" xlink:href="#w"/><use transform="matrix(0.022222222222222223,0,0,0.022222222222222223,53.333333333333336,0)" xlink:href="#q"/><use transform="matrix(0.022222222222222223,0,0,0.022222222222222223,66.66666666666667,0)" xlink:href="#A"/><use transform="matrix(0.022222222222222223,0,0,0.022222222222222223,80,0)" xlink:href="#p"/><use transform="matrix(0.022222222222222223,0,0,0.022222222222222223,93.33333333333334,0)" xlink:href="#B"/><use transform="matrix(0.022222222222222223,0,0,0.022222222222222223,106.66666666666666,0)" xlink:href="#p"/><use transform="matrix(0.022222222222222223,0,0,0.022222222222222223,119.99999999999999,0)" xlink:href="#u"/><use transform="matrix(0.022222222222222223,0,0,0.022222222222222223,133.33333333333331,0)" xlink:href="#C"/><use transform="matrix(0.022222222222222223,0,0,0.022222222222222223,146.66666666666666,0)" xlink:href="#A"/><use transform="matrix(0.022222222222222223,0,0,0.022222222222222223,160,0)" xlink:href="#w"/></g><path fill="#00c2a8" d="M310-155c-1 44 27 73 70 73h170V0H380c-94 2-160-62-160-155v-493H30v-82h280v575" id="D"/><use transform="matrix(0.12222222222222223,0,0,0.12222222222222223,0,0)" xlink:href="#D" id="e"/><path fill="#00c2a8" d="M641-720c86 3 143 71 130 172H663c-1-28 7-64-22-64H181c-12 0-22 10-22 22v154c0 12 10 22 22 22h460c72 0 130 58 130 130v154C771-58 713 0 641 0H181C95-3 38-71 51-172h108c1 28-7 64 22 64h460c12 0 22-10 22-22v-154c0-12-10-22-22-22H181c-72 0-130-58-130-130v-154c0-72 58-130 130-130h460" id="E"/><use transform="matrix(0.13333333333333333,0,0,0.13333333333333333,0,0)" xlink:href="#E" id="f"/></defs></g></svg>